<?xml version="1.0" encoding="UTF-8"?>
<svg id="Layer_2" data-name="Layer 2" xmlns="http://www.w3.org/2000/svg" xmlns:xlink="http://www.w3.org/1999/xlink" viewBox="0 0 1093.93 1093.93">
  <defs>
    <style>
      .cls-1 {
        fill: url(#radial-gradient-2);
      }

      .cls-1, .cls-2, .cls-3 {
        stroke-width: 0px;
      }

      .cls-2 {
        fill: url(#radial-gradient);
      }

      .cls-3 {
        fill: url(#radial-gradient-3);
      }
    </style>
    <radialGradient id="radial-gradient" cx="5674.79" cy="-6070.7" fx="5674.79" fy="-6070.7" r="508.58" gradientTransform="translate(6221.75 -5523.73) rotate(-180)" gradientUnits="userSpaceOnUse">
      <stop offset=".09" stop-color="#db9b39"/>
      <stop offset=".15" stop-color="#d09234"/>
      <stop offset=".41" stop-color="#a87323"/>
      <stop offset=".65" stop-color="#8b5d17"/>
      <stop offset=".85" stop-color="#794f10"/>
      <stop offset="1" stop-color="#734b0e"/>
    </radialGradient>
    <radialGradient id="radial-gradient-2" cx="5674.79" cy="-6070.7" fx="5674.79" fy="-6070.7" r="546.97" gradientTransform="translate(6221.75 -5523.73) rotate(-180)" gradientUnits="userSpaceOnUse">
      <stop offset="0" stop-color="#5c4110"/>
      <stop offset=".31" stop-color="#583f0f"/>
      <stop offset=".56" stop-color="#4f390e"/>
      <stop offset=".77" stop-color="#3e2f0c"/>
      <stop offset=".81" stop-color="#3b2d0c"/>
      <stop offset=".84" stop-color="#3e2f0c"/>
      <stop offset=".85" stop-color="#48360f"/>
      <stop offset=".87" stop-color="#594114"/>
      <stop offset=".89" stop-color="#70521b"/>
      <stop offset=".9" stop-color="#8f6723"/>
      <stop offset=".92" stop-color="#b4802e"/>
      <stop offset=".93" stop-color="#db9b39"/>
      <stop offset=".93" stop-color="#d09234"/>
      <stop offset=".95" stop-color="#a87323"/>
      <stop offset=".97" stop-color="#8b5d17"/>
      <stop offset=".99" stop-color="#794f10"/>
      <stop offset="1" stop-color="#734b0e"/>
    </radialGradient>
    <radialGradient id="radial-gradient-3" cx="546.97" cy="546.97" fx="546.97" fy="546.97" r="265.28" gradientUnits="userSpaceOnUse">
      <stop offset="0" stop-color="#e8a214"/>
      <stop offset=".04" stop-color="#db9912"/>
      <stop offset=".15" stop-color="#ba800f"/>
      <stop offset=".28" stop-color="#9e6c0c"/>
      <stop offset=".42" stop-color="#885d09"/>
      <stop offset=".57" stop-color="#795208"/>
      <stop offset=".74" stop-color="#704b07"/>
      <stop offset="1" stop-color="#6e4a07"/>
    </radialGradient>
  </defs>
  <g id="ACG_Logo" data-name="ACG Logo">
    <g>
      <g>
        <circle class="cls-2" cx="546.97" cy="546.97" r="508.58"/>
        <path class="cls-1" d="M546.97,0c301.6,0,546.97,245.37,546.97,546.97,0,301.6-245.37,546.97-546.97,546.97C245.37,1093.93,0,848.56,0,546.97,0,245.37,245.37,0,546.97,0ZM546.97,1017.17c259.27,0,470.2-210.93,470.2-470.2,0-259.27-210.93-470.2-470.2-470.2S76.76,287.7,76.76,546.97c0,259.27,210.93,470.2,470.2,470.2Z"/>
      </g>
      <path class="cls-3" d="M615.51,806.47c0-42.76,0-83.53,0-124.29q0-54.91-54.32-54.91c-17.59,0-35.2.62-52.75-.15-20.74-.91-28.35,8.79-28.03,28.78.65,40.19.18,80.4.17,120.6,0,9,0,18,0,29.52-39.53,0-76.17,1.52-112.61-.56-22.48-1.29-29.3-18.86-29.21-39.72.24-52.76.14-105.52.04-158.29-.07-35.88-1.8-38-36.62-47.9-26.75-7.61-35.25-35.68-14.35-54.34,78.72-70.25,158.32-139.51,237.89-208.79,13.76-11.98,29.54-12.11,43.44-.06,79.74,69.1,159.53,138.15,238.19,208.46,7.53,6.73,12.88,24.27,9.39,32.75-4.07,9.91-18.02,19.34-29.32,22-28.53,6.71-35.69,12.16-35.9,41.15-.39,54.43.1,108.87-.24,163.31-.2,32.02-10.34,42.07-42.02,42.39-30.01.31-60.02.07-93.75.07Z"/>
    </g>
  </g>
</svg>