<?xml version="1.0" encoding="UTF-8"?>
<svg id="Layer_2" data-name="Layer 2" xmlns="http://www.w3.org/2000/svg" xmlns:xlink="http://www.w3.org/1999/xlink" viewBox="0 0 648 962">
  <defs>
    <style>
      .cls-1 {
        fill: url(#linear-gradient);
      }

      .cls-1, .cls-2, .cls-3, .cls-4, .cls-5, .cls-6, .cls-7, .cls-8, .cls-9, .cls-10, .cls-11, .cls-12, .cls-13, .cls-14, .cls-15, .cls-16, .cls-17, .cls-18, .cls-19, .cls-20, .cls-21, .cls-22 {
        stroke-width: 0px;
      }

      .cls-2, .cls-14 {
        fill: #370617;
      }

      .cls-3 {
        fill: url(#linear-gradient-6);
        filter: url(#drop-shadow-1);
      }

      .cls-4 {
        fill: url(#linear-gradient-5);
      }

      .cls-5 {
        fill: #4c3109;
      }

      .cls-6 {
        fill: url(#linear-gradient-2);
      }

      .cls-7 {
        fill: url(#linear-gradient-7);
      }

      .cls-23 {
        filter: url(#drop-shadow-2);
      }

      .cls-8 {
        fill: url(#radial-gradient-2);
      }

      .cls-9 {
        fill: url(#radial-gradient-7);
      }

      .cls-10 {
        fill: url(#linear-gradient-3);
      }

      .cls-11 {
        fill: #855100;
      }

      .cls-12 {
        fill: url(#radial-gradient-5);
      }

      .cls-13 {
        fill: url(#radial-gradient);
      }

      .cls-14 {
        opacity: .35;
      }

      .cls-15 {
        fill: #634500;
      }

      .cls-16 {
        fill: #f2e3c4;
      }

      .cls-17 {
        fill: url(#radial-gradient-6);
      }

      .cls-18 {
        fill: url(#radial-gradient-3);
      }

      .cls-19 {
        fill: #684f21;
      }

      .cls-20 {
        fill: url(#linear-gradient-4);
      }

      .cls-21 {
        fill: #4a2d00;
      }

      .cls-22 {
        fill: url(#radial-gradient-4);
      }
    </style>
    <linearGradient id="linear-gradient" x1="323.58" y1="580.79" x2="318.04" y2="271.79" gradientUnits="userSpaceOnUse">
      <stop offset="0" stop-color="#964f00"/>
      <stop offset=".41" stop-color="#930"/>
      <stop offset="1" stop-color="#5c0312"/>
    </linearGradient>
    <linearGradient id="linear-gradient-2" x1="48.89" y1="552.34" x2="593.61" y2="552.34" gradientUnits="userSpaceOnUse">
      <stop offset="0" stop-color="#170e00"/>
      <stop offset="0" stop-color="#271a00"/>
      <stop offset="0" stop-color="#3d2900"/>
      <stop offset="0" stop-color="#4e3600"/>
      <stop offset="0" stop-color="#5a3e00"/>
      <stop offset="0" stop-color="#614300"/>
      <stop offset=".02" stop-color="#634500"/>
      <stop offset=".03" stop-color="#714e00"/>
      <stop offset=".04" stop-color="#805800"/>
      <stop offset=".06" stop-color="#895f00"/>
      <stop offset=".08" stop-color="#8c6100"/>
      <stop offset=".12" stop-color="#8f6300"/>
      <stop offset=".15" stop-color="#996a00"/>
      <stop offset=".18" stop-color="#ab7600"/>
      <stop offset=".21" stop-color="#c38700"/>
      <stop offset=".21" stop-color="#c78a00"/>
      <stop offset=".41" stop-color="#c78a01"/>
      <stop offset=".49" stop-color="#c98e08"/>
      <stop offset=".54" stop-color="#cd9414"/>
      <stop offset=".58" stop-color="#d29d25"/>
      <stop offset=".62" stop-color="#d8a83b"/>
      <stop offset=".65" stop-color="#e0b656"/>
      <stop offset=".68" stop-color="#eac776"/>
      <stop offset=".7" stop-color="#f5da9b"/>
      <stop offset=".72" stop-color="#fde7b4"/>
      <stop offset=".89" stop-color="#c78a00"/>
      <stop offset=".91" stop-color="#c28600"/>
      <stop offset=".95" stop-color="#b47d00"/>
      <stop offset=".98" stop-color="#9d6d00"/>
      <stop offset="1" stop-color="#8c6100"/>
    </linearGradient>
    <linearGradient id="linear-gradient-3" x1="319.49" y1="924.17" x2="319.49" y2="771.88" gradientUnits="userSpaceOnUse">
      <stop offset="0" stop-color="#551000"/>
      <stop offset=".13" stop-color="#4f0e04"/>
      <stop offset=".63" stop-color="#3d0812"/>
      <stop offset="1" stop-color="#370617"/>
    </linearGradient>
    <radialGradient id="radial-gradient" cx="47.62" cy="167.22" fx="-.69" fy="167.22" r="48.42" gradientUnits="userSpaceOnUse">
      <stop offset=".09" stop-color="#a1722a"/>
      <stop offset=".4" stop-color="#8a5f1c"/>
      <stop offset=".75" stop-color="#795011"/>
      <stop offset="1" stop-color="#734b0e"/>
    </radialGradient>
    <linearGradient id="linear-gradient-4" x1="22.69" y1="185.2" x2="119.57" y2="185.2" gradientUnits="userSpaceOnUse">
      <stop offset="0" stop-color="#3b2d0c"/>
      <stop offset=".13" stop-color="#976c26"/>
      <stop offset=".23" stop-color="#db9b39"/>
      <stop offset=".26" stop-color="#d19435"/>
      <stop offset=".36" stop-color="#ad7a2a"/>
      <stop offset=".46" stop-color="#8f6520"/>
      <stop offset=".57" stop-color="#785519"/>
      <stop offset=".69" stop-color="#684914"/>
      <stop offset=".83" stop-color="#5f4310"/>
      <stop offset="1" stop-color="#5c4110"/>
    </linearGradient>
    <radialGradient id="radial-gradient-2" cx="328.04" cy="62.5" fx="328.04" fy="62.5" r="336.43" gradientTransform="translate(0 50.69) scale(1 .19)" gradientUnits="userSpaceOnUse">
      <stop offset=".09" stop-color="#db9b39"/>
      <stop offset=".15" stop-color="#d09234"/>
      <stop offset=".41" stop-color="#a87323"/>
      <stop offset=".65" stop-color="#8b5d17"/>
      <stop offset=".85" stop-color="#794f10"/>
      <stop offset="1" stop-color="#734b0e"/>
    </radialGradient>
    <radialGradient id="radial-gradient-3" cx="346.19" cy="90.89" fx="346.19" fy="90.89" r="178.36" gradientUnits="userSpaceOnUse">
      <stop offset="0" stop-color="#170e00"/>
      <stop offset="0" stop-color="#271a00"/>
      <stop offset="0" stop-color="#3d2900"/>
      <stop offset="0" stop-color="#4e3600"/>
      <stop offset="0" stop-color="#5a3e00"/>
      <stop offset="0" stop-color="#614300"/>
      <stop offset=".02" stop-color="#634500"/>
      <stop offset=".03" stop-color="#714e00"/>
      <stop offset=".04" stop-color="#805800"/>
      <stop offset=".06" stop-color="#895f00"/>
      <stop offset=".08" stop-color="#8c6100"/>
      <stop offset=".12" stop-color="#8f6300"/>
      <stop offset=".15" stop-color="#996a00"/>
      <stop offset=".18" stop-color="#ab7600"/>
      <stop offset=".21" stop-color="#c38700"/>
      <stop offset=".21" stop-color="#c78a00"/>
      <stop offset=".27" stop-color="rgba(200, 141, 7, .97)" stop-opacity=".97"/>
      <stop offset=".35" stop-color="rgba(206, 152, 28, .89)" stop-opacity=".89"/>
      <stop offset=".42" stop-color="rgba(216, 169, 64, .75)" stop-opacity=".75"/>
      <stop offset=".5" stop-color="rgba(229, 193, 113, .56)" stop-opacity=".56"/>
      <stop offset=".52" stop-color="#e9c980" stop-opacity=".5"/>
      <stop offset=".53" stop-color="rgba(232, 199, 124, .49)" stop-opacity=".49"/>
      <stop offset=".55" stop-color="rgba(230, 196, 112, .44)" stop-opacity=".44"/>
      <stop offset=".56" stop-color="rgba(227, 190, 93, .37)" stop-opacity=".37"/>
      <stop offset=".57" stop-color="rgba(222, 181, 66, .26)" stop-opacity=".26"/>
      <stop offset=".58" stop-color="rgba(217, 170, 32, .13)" stop-opacity=".13"/>
      <stop offset=".59" stop-color="#d4a000" stop-opacity="0"/>
      <stop offset=".61" stop-color="#d4a000" stop-opacity="0"/>
      <stop offset=".61" stop-color="rgba(216, 169, 28, .11)" stop-opacity=".11"/>
      <stop offset=".61" stop-color="rgba(221, 179, 59, .23)" stop-opacity=".23"/>
      <stop offset=".61" stop-color="rgba(225, 187, 84, .33)" stop-opacity=".33"/>
      <stop offset=".62" stop-color="rgba(229, 193, 104, .41)" stop-opacity=".41"/>
      <stop offset=".62" stop-color="rgba(231, 197, 117, .46)" stop-opacity=".46"/>
      <stop offset=".63" stop-color="rgba(232, 200, 125, .49)" stop-opacity=".49"/>
      <stop offset=".64" stop-color="#e9c980" stop-opacity=".5"/>
      <stop offset=".69" stop-color="rgba(227, 190, 95, .37)" stop-opacity=".37"/>
      <stop offset=".75" stop-color="rgba(220, 177, 54, .21)" stop-opacity=".21"/>
      <stop offset=".82" stop-color="rgba(216, 167, 24, .1)" stop-opacity=".1"/>
      <stop offset=".87" stop-color="rgba(213, 162, 6, .02)" stop-opacity=".02"/>
      <stop offset=".91" stop-color="#d4a000" stop-opacity="0"/>
      <stop offset=".94" stop-color="rgba(212, 160, 1, 0)" stop-opacity="0"/>
      <stop offset=".96" stop-color="rgba(213, 163, 8, .03)" stop-opacity=".03"/>
      <stop offset=".96" stop-color="rgba(215, 167, 20, .08)" stop-opacity=".08"/>
      <stop offset=".97" stop-color="rgba(218, 173, 37, .15)" stop-opacity=".15"/>
      <stop offset=".98" stop-color="rgba(221, 181, 59, .23)" stop-opacity=".23"/>
      <stop offset=".98" stop-color="rgba(226, 191, 86, .34)" stop-opacity=".34"/>
      <stop offset=".99" stop-color="rgba(231, 203, 119, .47)" stop-opacity=".47"/>
      <stop offset=".99" stop-color="rgba(237, 217, 156, .62)" stop-opacity=".62"/>
      <stop offset=".99" stop-color="rgba(244, 233, 199, .79)" stop-opacity=".79"/>
      <stop offset="1" stop-color="rgba(251, 250, 245, .97)" stop-opacity=".97"/>
      <stop offset="1" stop-color="#fdfdfd"/>
      <stop offset="1" stop-color="#d4a000" stop-opacity="0"/>
    </radialGradient>
    <linearGradient id="linear-gradient-5" x1="103.54" y1="90.89" x2="588.84" y2="90.89" gradientUnits="userSpaceOnUse">
      <stop offset=".12" stop-color="#4a3607"/>
      <stop offset=".13" stop-color="#4f3c0d"/>
      <stop offset=".19" stop-color="#685427"/>
      <stop offset=".25" stop-color="#79663a"/>
      <stop offset=".31" stop-color="#837146"/>
      <stop offset=".38" stop-color="#87754a"/>
      <stop offset=".49" stop-color="#937944"/>
      <stop offset=".64" stop-color="#9f7d3f"/>
      <stop offset=".8" stop-color="#a37f3e"/>
      <stop offset="1" stop-color="#9e773a"/>
    </linearGradient>
    <linearGradient id="linear-gradient-6" x1="318.31" y1="937.07" x2="318.31" y2="12.03" gradientUnits="userSpaceOnUse">
      <stop offset="0" stop-color="#a68b5f"/>
      <stop offset=".11" stop-color="#9c7a46"/>
      <stop offset=".27" stop-color="#906626"/>
      <stop offset=".41" stop-color="#895913"/>
      <stop offset=".5" stop-color="#87550d"/>
      <stop offset=".66" stop-color="#88560f"/>
      <stop offset=".76" stop-color="#8b5c18"/>
      <stop offset=".84" stop-color="#916627"/>
      <stop offset=".92" stop-color="#99743c"/>
      <stop offset=".99" stop-color="#a38657"/>
      <stop offset="1" stop-color="#a68a5d"/>
    </linearGradient>
    <filter id="drop-shadow-1" filterUnits="userSpaceOnUse">
      <feOffset dx="6" dy="6"/>
      <feGaussianBlur result="blur" stdDeviation="6"/>
      <feFlood flood-color="#3f2700" flood-opacity=".8"/>
      <feComposite in2="blur" operator="in"/>
      <feComposite in="SourceGraphic"/>
    </filter>
    <linearGradient id="linear-gradient-7" x1="12.69" y1="469.9" x2="623.93" y2="469.9" gradientUnits="userSpaceOnUse">
      <stop offset="0" stop-color="#170e00"/>
      <stop offset="0" stop-color="#271a00"/>
      <stop offset="0" stop-color="#3d2900"/>
      <stop offset="0" stop-color="#4e3600"/>
      <stop offset="0" stop-color="#5a3e00"/>
      <stop offset="0" stop-color="#614300"/>
      <stop offset=".02" stop-color="#634500"/>
      <stop offset=".03" stop-color="#714e00"/>
      <stop offset=".04" stop-color="#805800"/>
      <stop offset=".06" stop-color="#895f00"/>
      <stop offset=".08" stop-color="#8c6100"/>
      <stop offset=".12" stop-color="#8f6300"/>
      <stop offset=".15" stop-color="#996a00"/>
      <stop offset=".18" stop-color="#ab7600"/>
      <stop offset=".21" stop-color="#c38700"/>
      <stop offset=".21" stop-color="#c78a00"/>
      <stop offset=".27" stop-color="rgba(200, 141, 7, .97)" stop-opacity=".97"/>
      <stop offset=".35" stop-color="rgba(206, 152, 28, .89)" stop-opacity=".89"/>
      <stop offset=".42" stop-color="rgba(216, 169, 64, .75)" stop-opacity=".75"/>
      <stop offset=".5" stop-color="rgba(229, 193, 113, .56)" stop-opacity=".56"/>
      <stop offset=".52" stop-color="#e9c980" stop-opacity=".5"/>
      <stop offset=".53" stop-color="rgba(232, 199, 124, .49)" stop-opacity=".49"/>
      <stop offset=".55" stop-color="rgba(230, 196, 112, .44)" stop-opacity=".44"/>
      <stop offset=".56" stop-color="rgba(227, 190, 93, .37)" stop-opacity=".37"/>
      <stop offset=".57" stop-color="rgba(222, 181, 66, .26)" stop-opacity=".26"/>
      <stop offset=".58" stop-color="rgba(217, 170, 32, .13)" stop-opacity=".13"/>
      <stop offset=".59" stop-color="#d4a000" stop-opacity="0"/>
      <stop offset=".61" stop-color="#d4a000" stop-opacity="0"/>
      <stop offset=".61" stop-color="rgba(216, 169, 28, .11)" stop-opacity=".11"/>
      <stop offset=".61" stop-color="rgba(221, 179, 59, .23)" stop-opacity=".23"/>
      <stop offset=".61" stop-color="rgba(225, 187, 84, .33)" stop-opacity=".33"/>
      <stop offset=".62" stop-color="rgba(229, 193, 104, .41)" stop-opacity=".41"/>
      <stop offset=".62" stop-color="rgba(231, 197, 117, .46)" stop-opacity=".46"/>
      <stop offset=".63" stop-color="rgba(232, 200, 125, .49)" stop-opacity=".49"/>
      <stop offset=".64" stop-color="#e9c980" stop-opacity=".5"/>
      <stop offset=".69" stop-color="rgba(227, 190, 95, .37)" stop-opacity=".37"/>
      <stop offset=".75" stop-color="rgba(220, 177, 54, .21)" stop-opacity=".21"/>
      <stop offset=".82" stop-color="rgba(216, 167, 24, .1)" stop-opacity=".1"/>
      <stop offset=".87" stop-color="rgba(213, 162, 6, .02)" stop-opacity=".02"/>
      <stop offset=".91" stop-color="#d4a000" stop-opacity="0"/>
      <stop offset=".94" stop-color="rgba(212, 160, 1, 0)" stop-opacity="0"/>
      <stop offset=".96" stop-color="rgba(213, 162, 6, .03)" stop-opacity=".03"/>
      <stop offset=".96" stop-color="rgba(215, 165, 14, .08)" stop-opacity=".08"/>
      <stop offset=".97" stop-color="rgba(218, 170, 26, .15)" stop-opacity=".15"/>
      <stop offset=".98" stop-color="rgba(221, 176, 42, .23)" stop-opacity=".23"/>
      <stop offset=".98" stop-color="rgba(226, 184, 61, .34)" stop-opacity=".34"/>
      <stop offset=".99" stop-color="rgba(231, 193, 84, .47)" stop-opacity=".47"/>
      <stop offset=".99" stop-color="rgba(237, 204, 111, .62)" stop-opacity=".62"/>
      <stop offset=".99" stop-color="rgba(244, 216, 142, .79)" stop-opacity=".79"/>
      <stop offset="1" stop-color="rgba(251, 228, 174, .97)" stop-opacity=".97"/>
      <stop offset="1" stop-color="#fde7b4"/>
      <stop offset="1" stop-color="#d4a000" stop-opacity="0"/>
    </linearGradient>
    <radialGradient id="radial-gradient-4" cx="98.61" cy="94.77" fx="98.61" fy="94.77" r="72.88" gradientTransform="matrix(1,0,0,1,0,0)" xlink:href="#radial-gradient-2"/>
    <radialGradient id="radial-gradient-5" cx="98.61" cy="94.77" fx="98.61" fy="94.77" r="78.38" gradientUnits="userSpaceOnUse">
      <stop offset="0" stop-color="#5c4110"/>
      <stop offset=".31" stop-color="#583f0f"/>
      <stop offset=".56" stop-color="#4f390e"/>
      <stop offset=".77" stop-color="#3e2f0c"/>
      <stop offset=".81" stop-color="#3b2d0c"/>
      <stop offset=".84" stop-color="#3e2f0c"/>
      <stop offset=".85" stop-color="#48360f"/>
      <stop offset=".87" stop-color="#594114"/>
      <stop offset=".89" stop-color="#70521b"/>
      <stop offset=".9" stop-color="#8f6723"/>
      <stop offset=".92" stop-color="#b4802e"/>
      <stop offset=".93" stop-color="#db9b39"/>
      <stop offset=".93" stop-color="#d09234"/>
      <stop offset=".95" stop-color="#a87323"/>
      <stop offset=".97" stop-color="#8b5d17"/>
      <stop offset=".99" stop-color="#794f10"/>
      <stop offset="1" stop-color="#734b0e"/>
    </radialGradient>
    <radialGradient id="radial-gradient-6" cx="541.13" cy="855.65" fx="541.13" fy="855.65" r="81.59" gradientTransform="translate(0 -522.2) scale(1 1.61)" gradientUnits="userSpaceOnUse">
      <stop offset="0" stop-color="#e87b00"/>
      <stop offset=".04" stop-color="#db7400"/>
      <stop offset=".15" stop-color="#ba6100"/>
      <stop offset=".28" stop-color="#9e5100"/>
      <stop offset=".42" stop-color="#884500"/>
      <stop offset=".57" stop-color="#793d00"/>
      <stop offset=".74" stop-color="#703800"/>
      <stop offset="1" stop-color="#6e3700"/>
    </radialGradient>
    <filter id="drop-shadow-2" filterUnits="userSpaceOnUse">
      <feOffset dx="0" dy="6"/>
      <feGaussianBlur result="blur-2" stdDeviation="3"/>
      <feFlood flood-color="#3f2700" flood-opacity=".64"/>
      <feComposite in2="blur-2" operator="in"/>
      <feComposite in="SourceGraphic"/>
    </filter>
    <radialGradient id="radial-gradient-7" cx="540.91" cy="844.51" fx="540.91" fy="844.51" r="89.45" gradientTransform="translate(0 -1318.54) scale(1 2.56)" gradientUnits="userSpaceOnUse">
      <stop offset=".15" stop-color="#ffb22e"/>
      <stop offset=".16" stop-color="#f9b033"/>
      <stop offset=".17" stop-color="#e3ad49"/>
      <stop offset=".19" stop-color="#d3aa5a"/>
      <stop offset=".21" stop-color="#c7a866"/>
      <stop offset=".24" stop-color="#c0a76d"/>
      <stop offset=".31" stop-color="#bfa76f"/>
      <stop offset=".34" stop-color="#bfa56b"/>
      <stop offset=".36" stop-color="#bfa261"/>
      <stop offset=".37" stop-color="#bf9d50"/>
      <stop offset=".39" stop-color="#bf9638"/>
      <stop offset=".41" stop-color="#bf8c19"/>
      <stop offset=".42" stop-color="#bf8500"/>
      <stop offset=".47" stop-color="#b37c00"/>
      <stop offset=".58" stop-color="#9c6c00"/>
      <stop offset=".66" stop-color="#946700"/>
      <stop offset=".69" stop-color="#9e6e00"/>
      <stop offset=".73" stop-color="#aa7600"/>
      <stop offset=".81" stop-color="#b17a00"/>
      <stop offset="1" stop-color="#b37c00"/>
    </radialGradient>
  </defs>
  <g id="Fire_Card_Template" data-name="Fire Card Template">
    <g id="Card_Face" data-name="Card Face">
      <g id="Card_Template" data-name="Card Template">
        <path class="cls-1" d="M69.46,19.9h503.99c26.38,0,47.8,21.42,47.8,47.8v766.7H21.25V68.11c0-26.61,21.6-48.21,48.21-48.21Z"/>
        <g>
          <g>
            <rect class="cls-16" x="53.39" y="202.15" width="535.71" height="700.37" rx="66.2" ry="66.2"/>
            <path class="cls-11" d="M522.91,904.03H119.59c-37.33,0-67.7-30.37-67.7-67.7V268.35c0-37.33,30.37-67.7,67.7-67.7h403.32c37.33,0,67.7,30.37,67.7,67.7v567.98c0,37.33-30.37,67.7-67.7,67.7ZM119.59,203.65c-35.67,0-64.7,29.02-64.7,64.7v567.98c0,35.67,29.02,64.7,64.7,64.7h403.32c35.67,0,64.7-29.02,64.7-64.7V268.35c0-35.67-29.02-64.7-64.7-64.7H119.59Z"/>
          </g>
          <g>
            <path class="cls-6" d="M522.91,907.03H119.59c-38.98,0-70.7-31.71-70.7-70.7V268.35c0-38.98,31.71-70.7,70.7-70.7h403.32c38.98,0,70.7,31.71,70.7,70.7v567.98c0,38.98-31.71,70.7-70.7,70.7ZM119.59,206.65c-34.02,0-61.7,27.68-61.7,61.7v567.98c0,34.02,27.68,61.7,61.7,61.7h403.32c34.02,0,61.7-27.68,61.7-61.7V268.35c0-34.02-27.68-61.7-61.7-61.7H119.59Z"/>
            <path class="cls-21" d="M522.91,908.53H119.59c-39.81,0-72.2-32.39-72.2-72.2V268.35c0-39.81,32.39-72.2,72.2-72.2h403.32c39.81,0,72.2,32.39,72.2,72.2v567.98c0,39.81-32.39,72.2-72.2,72.2ZM119.59,199.15c-38.15,0-69.2,31.04-69.2,69.2v567.98c0,38.16,31.04,69.2,69.2,69.2h403.32c38.15,0,69.2-31.04,69.2-69.2V268.35c0-38.15-31.04-69.2-69.2-69.2H119.59ZM522.91,899.53H119.59c-34.85,0-63.2-28.35-63.2-63.2V268.35c0-34.85,28.35-63.2,63.2-63.2h403.32c34.85,0,63.2,28.35,63.2,63.2v567.98c0,34.85-28.35,63.2-63.2,63.2ZM119.59,208.15c-33.19,0-60.2,27-60.2,60.2v567.98c0,33.19,27,60.2,60.2,60.2h403.32c33.19,0,60.2-27,60.2-60.2V268.35c0-33.19-27-60.2-60.2-60.2H119.59Z"/>
          </g>
        </g>
        <path class="cls-14" d="M621.25,750.38L21.25,805.76v76.98c0,25.23,20.45,45.68,45.68,45.68h492.74c34.01,0,61.58-27.57,61.58-61.58v-116.46Z"/>
        <path class="cls-2" d="M616.95,185.2L16.95,135.19v-60.74c0-27.62,21.96-50.01,49.06-50.01h506.93c24.3,0,44.01,20.09,44.01,44.86v115.9Z"/>
        <path class="cls-10" d="M609.63,771.88L26.99,820.62v73.19c0,15.86,13.35,28.74,29.85,28.78l532.74,1.58c12.52.04,22.62-9.82,22.41-21.85l-2.35-130.45Z"/>
        <g id="Card_Template-2" data-name="Card Template">
          <g>
            <g>
              <path class="cls-13" d="M55.84,182.91c-14.68,2.29-28.15,79.64-28.15,73.04l2-129.88c0-6.6,5.4-12,12-12h27.95c6.6,0,12,5.4,12,12,0,0,26.89,20.71,32.93,45.74-11.21,3.24-30.49,9.98-58.73,11.11Z"/>
              <path class="cls-15" d="M27.95,257.36c-.09,0-.2-.01-.31-.03-.43-.05-.95-.33-.95-1.39l2-129.9c0-7.15,5.83-12.98,13-12.98h27.95c7,0,12.73,5.57,12.99,12.51,1.54,1.23,7.51,6.14,13.95,13.3,6.9,7.66,15.79,19.56,18.96,32.69l.22.93-.92.27c-1.29.37-2.69.79-4.2,1.25-11.8,3.54-29.64,8.89-54.7,9.9-10.35,1.76-20.97,47.01-24.97,64.07-2,8.5-2.2,9.39-3.02,9.39ZM41.69,115.06c-6.07,0-11,4.93-11,11l-1.88,122.39c.07-.31.15-.62.22-.94,7.4-31.53,16.35-63.99,26.66-65.59h.11c24.84-1,42.55-6.32,54.27-9.83,1.16-.35,2.26-.68,3.3-.98-3.25-12.35-11.67-23.56-18.24-30.87-7.33-8.15-14.03-13.34-14.09-13.39l-.39-.3v-.49c0-6.07-4.93-11-11-11h-27.95Z"/>
            </g>
            <g>
              <path class="cls-20" d="M27.91,261.35c-.23,0-.48-.01-.73-.04-2.16-.25-4.49-2.04-4.49-5.37l2-129.96c0-9.3,7.62-16.92,17-16.92h27.95c8.51,0,15.58,6.29,16.81,14.46,6.32,5.25,27.46,24.22,32.98,47.11.63,2.6-.9,5.23-3.47,5.98-1.28.37-2.67.79-4.16,1.23-11.93,3.58-29.92,8.97-55.25,10.05-.73.34-4.98,3.14-11.59,23.29-4.34,13.23-7.94,28.56-10.08,37.71-.63,2.68-1.14,4.86-1.53,6.38-.55,2.17-1.54,6.09-5.43,6.09ZM41.69,119.06c-3.86,0-7,3.14-7,7l-1.37,88.98c7.48-25.26,13.97-35.86,21.75-37.07.19-.03.38-.05.57-.06,23.94-.96,41.19-6.03,52.71-9.48-7.45-20.98-29.53-38.22-29.76-38.41-1.23-.95-1.95-2.41-1.95-3.96,0-3.86-3.14-7-7-7h-27.95Z"/>
              <path class="cls-15" d="M27.91,262.35h0c-.27,0-.55-.02-.84-.05-2.59-.3-5.38-2.42-5.38-6.36l2-129.98c0-4.75,1.87-9.25,5.28-12.64,3.41-3.4,7.92-5.27,12.72-5.27h27.95c8.7,0,16.26,6.39,17.74,14.93,6.73,5.64,27.52,24.57,33.02,47.4.76,3.13-1.08,6.28-4.17,7.17-1.22.35-2.53.74-3.94,1.17l-.21.06c-11.92,3.58-29.92,8.98-55.25,10.08-.8.53-4.82,4-10.93,22.61-4.33,13.2-7.92,28.49-10.06,37.63-.64,2.73-1.15,4.89-1.53,6.39-.56,2.22-1.73,6.84-6.4,6.85ZM41.69,110.06c-4.26,0-8.28,1.66-11.31,4.68-3.02,3.02-4.69,7.01-4.69,11.24l-2,129.98c0,2.7,1.87,4.16,3.6,4.36,3.33.38,4.35-2.41,5.08-5.3.38-1.5.88-3.65,1.5-6.28,2.17-9.25,5.77-24.6,10.13-37.88,6.54-19.94,10.93-23.32,12.12-23.88l.18-.09h.2c25.21-1.08,43.14-6.46,55.01-10.02l.21-.06c1.42-.43,2.74-.82,3.96-1.17,2.06-.6,3.28-2.7,2.78-4.78-5.44-22.57-26.36-41.35-32.64-46.57l-.29-.24-.06-.38c-1.17-7.76-7.97-13.61-15.82-13.61h-27.95ZM32.21,222.31l1.48-96.27c0-4.4,3.59-7.98,8-7.98h27.95c4.41,0,8,3.59,8,8,0,1.23.58,2.41,1.56,3.17.22.17,22.53,17.53,30.09,38.87l.35.99-1.01.3c-10.66,3.2-28.51,8.55-52.96,9.53-.15,0-.3.02-.46.04-7.48,1.16-13.74,12.04-20.95,36.37l-2.07,6.99ZM41.69,120.06c-3.31,0-6,2.69-6,6l-1.26,82.01c6.71-20.76,12.81-29.89,20.49-31.09.23-.04.45-.06.68-.07,23.44-.94,40.78-5.94,51.45-9.14-7.69-20.3-28.85-36.8-29.07-36.96-1.46-1.13-2.34-2.91-2.34-4.75,0-3.31-2.69-6-6-6h-27.95Z"/>
            </g>
          </g>
          <g>
            <path class="cls-8" d="M539.66,99.82H214.32c-9.39,0-22.99,2.35-26.39,8.4-3.4,6.05-10.76,19.95-19.59,30.23-8.83,10.28-17.01,16.3-17.01,16.3l-42.79-81.21c0-25.69,19.78-46.52,44.18-46.52h431.12v26.28c0,25.69-19.78,46.52-44.18,46.52Z"/>
            <g>
              <path class="cls-18" d="M151.33,159.75c-.37,0-.75-.04-1.12-.13-1.42-.33-2.63-1.25-3.31-2.54l-42.79-81.21c-.38-.72-.58-1.52-.58-2.33,0-28.41,22.06-51.52,49.18-51.52h431.12c2.76,0,5,2.24,5,5v26.28c0,28.41-22.06,51.52-49.18,51.52H214.32c-11.05,0-20.48,3.08-22.04,5.85-.35.63-.75,1.34-1.19,2.13-3.75,6.75-10.74,19.32-18.97,28.91-9.09,10.59-17.48,16.81-17.84,17.07-.87.64-1.91.97-2.96.97ZM113.55,72.34l39.33,74.65c3.04-2.67,7.28-6.7,11.65-11.8,7.57-8.81,14.23-20.81,17.81-27.25.45-.8.85-1.53,1.21-2.17,5.99-10.64,28.24-10.95,30.75-10.95h325.34c21.61,0,39.18-18.62,39.18-41.52v-21.28H152.72c-21.22,0-38.56,17.97-39.17,40.31Z"/>
              <path class="cls-15" d="M151.33,161.25c-.49,0-.98-.06-1.45-.16-1.85-.42-3.41-1.63-4.3-3.31l-42.79-81.21c-.49-.93-.75-1.98-.75-3.03,0-29.23,22.74-53.02,50.68-53.02h431.12c3.58,0,6.5,2.92,6.5,6.5v26.28c0,29.23-22.74,53.02-50.68,53.02H214.32c-11.56,0-19.76,3.36-20.73,5.09-.32.56-.67,1.2-1.05,1.89l-.13.23c-3.78,6.8-10.81,19.46-19.14,29.16-9.19,10.7-17.73,17.04-18.08,17.3-1.13.83-2.46,1.27-3.85,1.27ZM152.72,23.53c-26.29,0-47.68,22.44-47.68,50.02,0,.57.14,1.13.4,1.63l42.79,81.21c.48.9,1.32,1.55,2.31,1.78.98.22,2.05,0,2.86-.59.35-.26,8.61-6.39,17.59-16.84,8.14-9.47,15.07-21.95,18.8-28.66l.13-.23c.39-.7.74-1.34,1.06-1.9,2.05-3.65,12.52-6.62,23.34-6.62h325.34c26.29,0,47.68-22.44,47.68-50.02v-26.28c0-1.93-1.57-3.5-3.5-3.5H152.72ZM152.45,149.37l-40.4-76.68v-.39c.63-23.03,18.88-41.77,40.68-41.77h427.62v22.78c0,23.72-18.25,43.02-40.68,43.02H214.32c-8.81,0-24.92,2.15-29.44,10.19-.3.54-.64,1.14-1.01,1.8l-.2.36c-3.61,6.49-10.32,18.57-17.99,27.5-4.53,5.28-8.92,9.41-11.8,11.94l-1.43,1.26ZM115.06,71.99l38.25,72.6c2.73-2.49,6.36-6.03,10.09-10.37,7.47-8.7,14.09-20.6,17.64-27l.2-.37c.37-.66.71-1.27,1.01-1.82,2.73-4.86,8.68-8.29,17.67-10.2,6.8-1.44,13.18-1.52,14.39-1.52h325.34c20.78,0,37.68-17.95,37.68-40.02v-19.78H152.72c-20.07,0-36.88,17.22-37.66,38.46Z"/>
            </g>
          </g>
          <path class="cls-4" d="M151.33,159.75c-.37,0-.75-.04-1.12-.13-1.42-.33-2.63-1.25-3.31-2.54l-42.79-81.21c-.38-.72-.58-1.52-.58-2.33,0-28.41,22.06-51.52,49.18-51.52h431.12c2.76,0,5,2.24,5,5v26.28c0,28.41-22.06,51.52-49.18,51.52H214.32c-11.05,0-20.48,3.09-22.04,5.85-.35.63-.75,1.34-1.19,2.13-3.75,6.75-10.74,19.32-18.97,28.91-9.09,10.59-17.48,16.81-17.84,17.07-.87.64-1.91.97-2.96.97ZM113.55,72.34l39.33,74.65c3.04-2.67,7.28-6.7,11.65-11.8,7.57-8.81,14.23-20.81,17.81-27.25.45-.8.85-1.53,1.21-2.17,5.99-10.64,28.23-10.95,30.75-10.95h325.34c21.61,0,39.18-18.62,39.18-41.52v-21.28H152.72c-21.22,0-38.56,17.97-39.17,40.31Z"/>
          <path class="cls-3" d="M566.69,937.07H69.92c-31.56,0-57.23-25.67-57.23-57.23V69.26c0-31.56,25.67-57.23,57.23-57.23h496.77c31.56,0,57.23,25.67,57.23,57.23v810.58c0,31.56-25.67,57.23-57.23,57.23ZM69.92,27.03c-23.29,0-42.23,18.95-42.23,42.23v810.58c0,23.29,18.95,42.23,42.23,42.23h496.77c23.29,0,42.23-18.95,42.23-42.23V69.26c0-23.29-18.95-42.23-42.23-42.23H69.92Z"/>
          <path class="cls-5" d="M566.69,939.07H69.92c-32.66,0-59.23-26.57-59.23-59.23V69.26c0-32.66,26.57-59.23,59.23-59.23h496.77c32.66,0,59.23,26.57,59.23,59.23v810.58c0,32.66-26.57,59.23-59.23,59.23ZM69.92,14.03c-30.46,0-55.23,24.78-55.23,55.23v810.58c0,30.46,24.78,55.23,55.23,55.23h496.77c30.46,0,55.23-24.78,55.23-55.23V69.26c0-30.46-24.78-55.23-55.23-55.23H69.92ZM566.69,924.07H69.92c-24.39,0-44.23-19.84-44.23-44.23V69.26c0-24.39,19.84-44.23,44.23-44.23h496.77c24.39,0,44.23,19.84,44.23,44.23v810.58c0,24.39-19.84,44.23-44.23,44.23ZM69.92,29.03c-22.18,0-40.23,18.05-40.23,40.23v810.58c0,22.18,18.05,40.23,40.23,40.23h496.77c22.18,0,40.23-18.05,40.23-40.23V69.26c0-22.18-18.05-40.23-40.23-40.23H69.92Z"/>
          <path class="cls-7" d="M29.72,920.52c23.65,15.36,47.48,1.55,47.48,1.55-35.69.82-49.51-22.86-49.51-42.24V69.26c0-23.29,18.95-42.23,42.23-42.23h496.77c23.29,0,42.23,18.95,42.23,42.23v810.58c0,19.37-13.12,35.73-30.93,40.69h28.91c10.51-10.38,17.03-24.78,17.03-40.69V69.26c0-31.56-25.67-57.23-57.23-57.23H69.92c-31.56,0-57.23,25.67-57.23,57.23v810.58c0,15.9,6.7,31.3,17.03,40.69Z"/>
          <g>
            <circle class="cls-22" cx="98.61" cy="94.77" r="72.88"/>
            <path class="cls-12" d="M98.61,173.15c-43.22,0-78.38-35.16-78.38-78.38S55.39,16.39,98.61,16.39s78.38,35.16,78.38,78.38-35.16,78.38-78.38,78.38ZM98.61,27.39c-37.15,0-67.38,30.23-67.38,67.38s30.23,67.38,67.38,67.38,67.38-30.23,67.38-67.38S135.76,27.39,98.61,27.39Z"/>
          </g>
        </g>
      </g>
      <g id="Fire_Symbol_Template" data-name="Fire Symbol Template">
        <path class="cls-17" d="M537.96,924.28c-6.88,0-20.38-.81-33.56-6.21-15.21-6.23-25.63-16.62-30.98-30.86-4.83-13.62.86-34.35,5.44-51.01,2-7.29,4.07-14.83,3.77-17.4-1.04-8.68-5.27-19.56-5.31-19.67l-2.7-6.91,7.05,2.31c2.6.85,12.74,4.32,19.68,8.8,1.42-13.32,5.45-33.74,5.66-34.79l2.75-13.88,4.04,13.56c1.27,4.26,5.38,16.32,9.1,20.91l.17.21.14.24c1.43,2.48,2.63,4.51,3.63,6.18.76-2.4,1.94-4.84,3.79-6.83,8.57-9.25,3.97-29.92,3.92-30.12l-4.01-17.55,10.29,14.77c.05.07,4.73,6.8,8.6,12.94.41.64.77,1.27,1.1,1.88.33-4.08-.04-7.16-.05-7.19l-1.59-12.71,7.83,10.13c.32.41,7.87,10.22,10.68,18.05,1.39,3.87,1.89,9.96,2.02,15.35.45-.96.88-1.98,1.24-3.07,2.77-8.21,3.74-10.56,3.77-10.65l2.38-5.75,3.68,5.02c.15.2,3.63,5.02,8.18,16.54,1.47,3.72,2.53,7.44,3.27,10.71.82-.99,1.71-1.82,2.69-2.36,5.77-4.34,9.32-5.08,9.99-5.19l7.21-1.15-3.61,6.34c-.06.11-6.5,11.67-4.08,22.21.15.64.66,1.92,1.26,3.39,3.47,8.61,11.59,28.76,2.86,60.43l-.09.32-.15.3c-15.62,31.56-48.89,32.26-64.88,32.6-.94.02-1.83.04-2.65.06-.78.02-1.62.04-2.51.04Z"/>
        <g class="cls-23">
          <path class="cls-9" d="M546.45,770.82c3.87,6.15,3.32,10.24,3.32,10.24,0,0,3.57-3.66,4.12-8.78.55-5.12.04-9.08.04-9.08,0,0,7.5,9.7,10.16,17.1,2.66,7.4,1.64,25.27,1.64,25.27,0,0,5.46-4.86,8.23-13.05,2.77-8.19,3.69-10.43,3.69-10.43,0,0,3.31,4.52,7.75,15.76,4.05,10.25,4.79,20.59,4.79,20.59,0,0,2.99-9.02,6.31-10.55,5.51-4.19,8.66-4.7,8.66-4.7,0,0-7.22,12.67-4.46,24.73,1.27,5.53,14.23,25.56,4.15,62.11-15.58,31.47-50.12,30.3-64.49,30.72-.74.02-1.55.03-2.41.03-15.75,0-49.79-4.26-61.27-34.81-6.87-19.37,10.51-58.38,9.4-67.6-1.11-9.22-5.52-20.53-5.52-20.53,0,0,20.46,6.7,23.78,12.84,0-10.75,6.08-41.48,6.08-41.48,0,0,4.75,15.97,9.73,22.11,7.69,13.31,8.86,14.2,8.86,14.2,0,0-.45-9.24,4.16-14.22,9.96-10.75,4.76-33.29,4.76-33.29l8.51,12.8ZM522.99,724.33l8.12,35.25h0c1.12,4.93,2.95,20.46-3.08,26.97-.54.59-1.04,1.21-1.49,1.85-.11-.19-.22-.38-.33-.57l-.28-.48-.35-.43c-2.98-3.68-6.77-14.04-8.46-19.71l-8.08-27.1-5.49,27.74c-.45,2.28-3.39,17.31-5.06,29.81-1.36-.69-2.85-1.39-4.46-2.1-5.78-2.55-11.07-4.29-11.29-4.37l-14.1-4.62,5.4,13.82c.04.1,4.11,10.61,5.09,18.81.17,2.1-1.96,9.84-3.66,16.06-4.71,17.13-10.56,38.44-5.39,53.04l.02.06.02.06c5.71,15.2,16.79,26.26,32.93,32.87,13.74,5.63,27.76,6.47,34.89,6.47.89,0,1.77-.01,2.62-.04.81-.02,1.68-.04,2.62-.06,8.22-.17,20.65-.44,33.33-4.7,15.78-5.3,27.42-15.34,34.6-29.86l.3-.6.18-.64c9.05-32.82.62-53.74-2.98-62.67-.44-1.09-.98-2.44-1.09-2.88-2.09-9.13,3.66-19.58,3.72-19.69l7.23-12.68-14.42,2.3c-1.04.17-4.65.99-10.13,4.82-.57-1.9-1.23-3.86-2.01-5.82-4.64-11.74-8.22-16.79-8.62-17.32l-7.36-10.04-4.76,11.5s-.01.03-.02.05c-.15-.54-.31-1.05-.49-1.53-2.95-8.2-10.37-17.93-11.21-19.01l-15.77-20.4,2.46,19.11c-1.41-2.08-2.39-3.49-2.48-3.61l-20.69-29.68h0Z"/>
          <path class="cls-19" d="M619.78,794.7c.29-.5.26-1.12-.07-1.6-.33-.47-.9-.72-1.47-.63l-14.41,2.31c-1.22.19-4.38.96-9.06,3.95-.45-1.38-.94-2.72-1.44-4.01-4.71-11.91-8.4-17.11-8.8-17.66l-7.36-10.04c-.32-.44-.85-.66-1.39-.6-.54.07-1,.42-1.21.92l-3.3,7.99c-3.4-7.9-9.82-16.31-10.6-17.32l-15.77-20.4c-.41-.54-1.14-.73-1.76-.47-.63.26-1,.91-.91,1.58l1.67,12.97-19.66-28.21c-.41-.59-1.18-.8-1.84-.51-.66.29-1.01,1.01-.85,1.71l8.12,35.24c1.35,5.95,2.46,20.03-2.71,25.62-.1.1-.19.21-.28.31-2.68-3.45-6.33-13.17-8.08-19.06l-8.08-27.1c-.2-.66-.84-1.09-1.51-1.07-.69.03-1.27.53-1.4,1.21l-5.49,27.74c-.32,1.63-3.06,15.56-4.8,27.84-.84-.4-1.73-.8-2.65-1.21-5.98-2.64-11.38-4.4-11.43-4.42l-14.1-4.62c-.55-.18-1.16-.03-1.56.4-.4.42-.52,1.04-.31,1.58l5.4,13.82c.04.1,4.05,10.52,5,18.39.15,1.84-2.12,10.08-3.62,15.54-4.76,17.33-10.69,38.9-5.33,54,0,.01.03.08.04.09,5.86,15.6,17.22,26.95,33.77,33.73,13.98,5.73,28.21,6.58,35.46,6.58.9,0,1.8-.01,2.66-.04.81-.02,1.68-.04,2.62-.06,8.31-.18,20.88-.45,33.77-4.77,16.17-5.43,28.1-15.73,35.47-30.61l.3-.6c.04-.09.08-.17.1-.27l.18-.64c9.19-33.3.62-54.56-3.04-63.63-.31-.76-.94-2.33-1.02-2.65-1.96-8.54,3.51-18.52,3.56-18.61l7.23-12.68ZM606.07,826.7c.12.46.47,1.36,1.16,3.08,3.54,8.79,11.85,29.39,2.93,61.71l-.14.51-.23.47c-7,14.14-18.35,23.93-33.74,29.1-12.46,4.18-24.74,4.44-32.89,4.62-.94.02-1.82.04-2.63.06-.83.02-1.7.04-2.57.04-7.02,0-20.82-.83-34.32-6.36-15.74-6.45-26.54-17.22-32.1-32.01,0,0-.03-.09-.04-.1-5.02-14.16.77-35.22,5.42-52.15,2.29-8.32,3.89-14.37,3.71-16.63-1.01-8.42-5.15-19.08-5.19-19.18l-4.24-10.86,11.08,3.63c.05.02,5.31,1.73,11.15,4.31,1.59.7,3.07,1.4,4.39,2.07.43.22.95.21,1.38-.01.43-.23.72-.65.79-1.13,1.69-12.64,4.71-28.01,5.05-29.72l4.32-21.79,6.35,21.29c1.24,4.16,5.23,15.89,8.73,20.22l.27.34.55.95c.26.44.72.72,1.23.74.51.05,1-.21,1.29-.63.42-.6.88-1.17,1.37-1.69,6.5-7.02,4.68-22.82,3.44-28.33l-6.38-27.69,16.26,23.34c.13.19,1.09,1.57,2.46,3.58.39.58,1.13.81,1.77.56.65-.25,1.04-.91.96-1.59l-1.75-13.62,12.39,16.03c.82,1.06,8.1,10.6,10.99,18.6.16.45.31.93.45,1.42.17.62.73,1.03,1.37,1.07.64.05,1.24-.36,1.49-.95l3.74-9.03,5.78,7.89c.38.52,3.86,5.42,8.43,16.99.71,1.8,1.37,3.72,1.96,5.7.14.46.49.83.94.99.46.16.96.09,1.35-.19,5.25-3.67,8.6-4.43,9.51-4.57l11.33-1.81-5.68,9.96c-.06.11-6.1,11.06-3.87,20.79Z"/>
        </g>
      </g>
    </g>
  </g>
</svg>