<?xml version="1.0" encoding="UTF-8"?>
<svg id="Layer_2" data-name="Layer 2" xmlns="http://www.w3.org/2000/svg" xmlns:xlink="http://www.w3.org/1999/xlink" viewBox="0 0 2923.17 1093.93">
  <defs>
    <style>
      .cls-1 {
        fill: url(#radial-gradient-2);
      }

      .cls-1, .cls-2, .cls-3, .cls-4 {
        stroke-width: 0px;
      }

      .cls-2 {
        fill: url(#radial-gradient);
      }

      .cls-3 {
        fill: url(#radial-gradient-3);
      }

      .cls-4 {
        fill: url(#radial-gradient-4);
      }
    </style>
    <radialGradient id="radial-gradient" cx="1576.58" cy="558.39" fx="1576.58" fy="558.39" r="682.65" gradientTransform="translate(3065.77 1093.93) rotate(-180) scale(1.22 1)" gradientUnits="userSpaceOnUse">
      <stop offset=".25" stop-color="#21274e"/>
      <stop offset=".47" stop-color="#1f2443"/>
      <stop offset="1" stop-color="#1c202f"/>
      <stop offset="1" stop-color="#181b29"/>
    </radialGradient>
    <radialGradient id="radial-gradient-2" cx="1576.36" cy="558.39" fx="1576.36" fy="558.39" r="1601.13" gradientTransform="translate(-632.23 1211.26) rotate(-29.72) scale(1.15 .52) skewX(4.9)" gradientUnits="userSpaceOnUse">
      <stop offset=".09" stop-color="#f6910a"/>
      <stop offset=".12" stop-color="#ed8c0a"/>
      <stop offset=".34" stop-color="#b9700b"/>
      <stop offset=".54" stop-color="#915a0d"/>
      <stop offset=".73" stop-color="#744a0e"/>
      <stop offset=".88" stop-color="#62400e"/>
      <stop offset="1" stop-color="#5c3d0f"/>
    </radialGradient>
    <radialGradient id="radial-gradient-3" cx="546.97" cy="546.97" fx="546.97" fy="546.97" r="508.58" gradientTransform="translate(2923.17 1093.93) rotate(-180)" gradientUnits="userSpaceOnUse">
      <stop offset=".09" stop-color="#db9b39"/>
      <stop offset=".15" stop-color="#d09234"/>
      <stop offset=".41" stop-color="#a87323"/>
      <stop offset=".65" stop-color="#8b5d17"/>
      <stop offset=".85" stop-color="#794f10"/>
      <stop offset="1" stop-color="#734b0e"/>
    </radialGradient>
    <radialGradient id="radial-gradient-4" cx="546.97" cy="546.97" fx="546.97" fy="546.97" r="546.97" gradientTransform="translate(2923.17 1093.93) rotate(-180)" gradientUnits="userSpaceOnUse">
      <stop offset="0" stop-color="#5c4110"/>
      <stop offset=".31" stop-color="#583f0f"/>
      <stop offset=".56" stop-color="#4f390e"/>
      <stop offset=".77" stop-color="#3e2f0c"/>
      <stop offset=".81" stop-color="#3b2d0c"/>
      <stop offset=".84" stop-color="#3e2f0c"/>
      <stop offset=".85" stop-color="#48360f"/>
      <stop offset=".87" stop-color="#594114"/>
      <stop offset=".89" stop-color="#70521b"/>
      <stop offset=".9" stop-color="#8f6723"/>
      <stop offset=".92" stop-color="#b4802e"/>
      <stop offset=".93" stop-color="#db9b39"/>
      <stop offset=".93" stop-color="#d09234"/>
      <stop offset=".95" stop-color="#a87323"/>
      <stop offset=".97" stop-color="#8b5d17"/>
      <stop offset=".99" stop-color="#794f10"/>
      <stop offset="1" stop-color="#734b0e"/>
    </radialGradient>
  </defs>
  <g id="ACG_Logo" data-name="ACG Logo">
    <g>
      <g>
        <polygon class="cls-2" points="317.13 851.87 1945.01 851.87 2253.99 535.54 1945.01 219.21 317.13 219.21 25.38 535.54 317.13 851.87"/>
        <path class="cls-1" d="M307.04,202.63h1647.71s325.17,332.91,325.17,332.91l-325.17,332.91H307.04S0,535.54,0,535.54L307.04,202.63ZM1935.28,235.79H327.21S50.75,535.54,50.75,535.54l276.46,299.75h1608.06s292.78-299.75,292.78-299.75l-292.78-299.75Z"/>
      </g>
      <g>
        <circle class="cls-3" cx="2376.21" cy="546.97" r="508.58"/>
        <path class="cls-4" d="M2376.21,0c301.6,0,546.97,245.37,546.97,546.97,0,301.6-245.37,546.97-546.97,546.97-301.6,0-546.97-245.37-546.97-546.97C1829.24,245.37,2074.61,0,2376.21,0ZM2376.21,1017.17c259.27,0,470.2-210.93,470.2-470.2,0-259.27-210.93-470.2-470.2-470.2s-470.2,210.93-470.2,470.2c0,259.27,210.93,470.2,470.2,470.2Z"/>
      </g>
    </g>
  </g>
</svg>