<?xml version="1.0" encoding="UTF-8"?>
<svg id="Layer_2" data-name="Layer 2" xmlns="http://www.w3.org/2000/svg" xmlns:xlink="http://www.w3.org/1999/xlink" viewBox="0 0 2279.92 2668.78">
  <defs>
    <style>
      .cls-1 {
        fill: url(#radial-gradient-2);
      }

      .cls-1, .cls-2, .cls-3, .cls-4 {
        stroke-width: 0px;
      }

      .cls-2 {
        fill: url(#radial-gradient);
      }

      .cls-3 {
        fill: url(#radial-gradient-3);
      }

      .cls-4 {
        fill: url(#radial-gradient-4);
      }
    </style>
    <radialGradient id="radial-gradient" cx="18989.52" cy="-5827.43" fx="18989.52" fy="-5827.43" r="1012.26" gradientTransform="translate(20129.48 -4738.78) rotate(-180)" gradientUnits="userSpaceOnUse">
      <stop offset=".09" stop-color="#db9b39"/>
      <stop offset=".15" stop-color="#d09234"/>
      <stop offset=".41" stop-color="#a87323"/>
      <stop offset=".65" stop-color="#8b5d17"/>
      <stop offset=".85" stop-color="#794f10"/>
      <stop offset="1" stop-color="#734b0e"/>
    </radialGradient>
    <radialGradient id="radial-gradient-2" cx="18989.52" cy="-5827.43" fx="18989.52" fy="-5827.43" r="1088.65" gradientTransform="translate(20129.48 -4738.78) rotate(-180)" gradientUnits="userSpaceOnUse">
      <stop offset="0" stop-color="#5c4110"/>
      <stop offset=".31" stop-color="#583f0f"/>
      <stop offset=".56" stop-color="#4f390e"/>
      <stop offset=".77" stop-color="#3e2f0c"/>
      <stop offset=".81" stop-color="#3b2d0c"/>
      <stop offset=".84" stop-color="#3e2f0c"/>
      <stop offset=".85" stop-color="#48360f"/>
      <stop offset=".87" stop-color="#594114"/>
      <stop offset=".89" stop-color="#70521b"/>
      <stop offset=".9" stop-color="#8f6723"/>
      <stop offset=".92" stop-color="#b4802e"/>
      <stop offset=".93" stop-color="#db9b39"/>
      <stop offset=".93" stop-color="#d09234"/>
      <stop offset=".95" stop-color="#a87323"/>
      <stop offset=".97" stop-color="#8b5d17"/>
      <stop offset=".99" stop-color="#794f10"/>
      <stop offset="1" stop-color="#734b0e"/>
    </radialGradient>
    <radialGradient id="radial-gradient-3" cx="17221.8" cy="-7074.65" fx="17221.8" fy="-7074.65" r="682.65" gradientTransform="translate(22179.24 -4738.78) rotate(-180) scale(1.22 1)" gradientUnits="userSpaceOnUse">
      <stop offset=".25" stop-color="#21274e"/>
      <stop offset=".47" stop-color="#1f2443"/>
      <stop offset="1" stop-color="#1c202f"/>
      <stop offset="1" stop-color="#181b29"/>
    </radialGradient>
    <radialGradient id="radial-gradient-4" cx="17221.57" cy="-7074.65" fx="17221.57" fy="-7074.65" r="1601.13" gradientTransform="translate(-13676.04 15051.99) rotate(-29.72) scale(1.15 .52) skewX(4.9)" gradientUnits="userSpaceOnUse">
      <stop offset=".09" stop-color="#f6910a"/>
      <stop offset=".12" stop-color="#ed8c0a"/>
      <stop offset=".34" stop-color="#b9700b"/>
      <stop offset=".54" stop-color="#915a0d"/>
      <stop offset=".73" stop-color="#744a0e"/>
      <stop offset=".88" stop-color="#62400e"/>
      <stop offset="1" stop-color="#5c3d0f"/>
    </radialGradient>
  </defs>
  <g id="ACG_Logo" data-name="ACG Logo">
    <g>
      <g>
        <circle class="cls-2" cx="1139.96" cy="1088.65" r="1012.26"/>
        <path class="cls-1" d="M1139.96,0c600.28,0,1088.65,488.37,1088.65,1088.65,0,600.29-488.37,1088.65-1088.65,1088.65S51.31,1688.94,51.31,1088.65C51.31,488.37,539.68,0,1139.96,0ZM1139.96,2024.52c516.04,0,935.87-419.83,935.87-935.87,0-516.04-419.83-935.87-935.87-935.87S204.09,572.61,204.09,1088.65c0,516.04,419.83,935.87,935.87,935.87Z"/>
      </g>
      <g>
        <polygon class="cls-3" points="317.13 2652.2 1945.01 2652.2 2253.99 2335.87 1945.01 2019.54 317.13 2019.54 25.38 2335.87 317.13 2652.2"/>
        <path class="cls-4" d="M307.04,2002.96h1647.71s325.17,332.91,325.17,332.91l-325.17,332.91H307.04S0,2335.87,0,2335.87l307.04-332.91ZM1935.28,2036.12H327.21s-276.46,299.75-276.46,299.75l276.46,299.75h1608.06s292.78-299.75,292.78-299.75l-292.78-299.75Z"/>
      </g>
    </g>
  </g>
</svg>